<mxfile host="app.diagrams.net" agent="Mozilla/5.0 (Windows NT 10.0; Win64; x64) AppleWebKit/537.36 (KHTML, like Gecko) Chrome/133.0.0.0 Safari/537.36" version="26.0.11">
  <diagram id="vZv2f6N4h2fVlUgS8-mH" name="Page-1">
    <mxGraphModel dx="1042" dy="1210" grid="1" gridSize="10" guides="1" tooltips="1" connect="1" arrows="1" fold="1" page="1" pageScale="1" pageWidth="827" pageHeight="1169" math="0" shadow="0">
      <root>
        <mxCell id="0" />
        <mxCell id="1" parent="0" />
        <mxCell id="wIDoKdP5xiYzRXoxx19H-1" value="IntLiteral" style="swimlane;fontStyle=1;align=center;verticalAlign=top;childLayout=stackLayout;horizontal=1;startSize=26;horizontalStack=0;resizeParent=1;resizeParentMax=0;resizeLast=0;collapsible=1;marginBottom=0;" parent="1" vertex="1">
          <mxGeometry x="415" y="620" width="167" height="60" as="geometry" />
        </mxCell>
        <mxCell id="wIDoKdP5xiYzRXoxx19H-2" value="+ value: int" style="text;strokeColor=none;fillColor=none;align=left;verticalAlign=top;spacingLeft=4;spacingRight=4;overflow=hidden;rotatable=0;points=[[0,0.5],[1,0.5]];portConstraint=eastwest;" parent="wIDoKdP5xiYzRXoxx19H-1" vertex="1">
          <mxGeometry y="26" width="167" height="26" as="geometry" />
        </mxCell>
        <mxCell id="wIDoKdP5xiYzRXoxx19H-3" value="" style="line;strokeWidth=1;fillColor=none;align=left;verticalAlign=middle;spacingTop=-1;spacingLeft=3;spacingRight=3;rotatable=0;labelPosition=right;points=[];portConstraint=eastwest;" parent="wIDoKdP5xiYzRXoxx19H-1" vertex="1">
          <mxGeometry y="52" width="167" height="8" as="geometry" />
        </mxCell>
        <mxCell id="wIDoKdP5xiYzRXoxx19H-5" value="Variable" style="swimlane;fontStyle=1;align=center;verticalAlign=top;childLayout=stackLayout;horizontal=1;startSize=26;horizontalStack=0;resizeParent=1;resizeParentMax=0;resizeLast=0;collapsible=1;marginBottom=0;" parent="1" vertex="1">
          <mxGeometry x="231.5" y="620" width="167" height="60" as="geometry" />
        </mxCell>
        <mxCell id="wIDoKdP5xiYzRXoxx19H-6" value="+ name: String" style="text;strokeColor=none;fillColor=none;align=left;verticalAlign=top;spacingLeft=4;spacingRight=4;overflow=hidden;rotatable=0;points=[[0,0.5],[1,0.5]];portConstraint=eastwest;" parent="wIDoKdP5xiYzRXoxx19H-5" vertex="1">
          <mxGeometry y="26" width="167" height="26" as="geometry" />
        </mxCell>
        <mxCell id="wIDoKdP5xiYzRXoxx19H-7" value="" style="line;strokeWidth=1;fillColor=none;align=left;verticalAlign=middle;spacingTop=-1;spacingLeft=3;spacingRight=3;rotatable=0;labelPosition=right;points=[];portConstraint=eastwest;" parent="wIDoKdP5xiYzRXoxx19H-5" vertex="1">
          <mxGeometry y="52" width="167" height="8" as="geometry" />
        </mxCell>
        <mxCell id="FSjlENQ1su7ySYIfnpes-22" style="edgeStyle=orthogonalEdgeStyle;rounded=0;orthogonalLoop=1;jettySize=auto;html=1;" parent="1" source="wIDoKdP5xiYzRXoxx19H-10" target="FSjlENQ1su7ySYIfnpes-17" edge="1">
          <mxGeometry relative="1" as="geometry">
            <Array as="points">
              <mxPoint x="880" y="707" />
              <mxPoint x="880" y="637" />
            </Array>
          </mxGeometry>
        </mxCell>
        <mxCell id="wIDoKdP5xiYzRXoxx19H-10" value="ArithmeticExpression" style="swimlane;fontStyle=1;align=center;verticalAlign=top;childLayout=stackLayout;horizontal=1;startSize=26;horizontalStack=0;resizeParent=1;resizeParentMax=0;resizeLast=0;collapsible=1;marginBottom=0;" parent="1" vertex="1">
          <mxGeometry x="897" y="677" width="167" height="34" as="geometry" />
        </mxCell>
        <mxCell id="wIDoKdP5xiYzRXoxx19H-12" value="" style="line;strokeWidth=1;fillColor=none;align=left;verticalAlign=middle;spacingTop=-1;spacingLeft=3;spacingRight=3;rotatable=0;labelPosition=right;points=[];portConstraint=eastwest;" parent="wIDoKdP5xiYzRXoxx19H-10" vertex="1">
          <mxGeometry y="26" width="167" height="8" as="geometry" />
        </mxCell>
        <mxCell id="wIDoKdP5xiYzRXoxx19H-13" value="" style="group" parent="1" vertex="1" connectable="0">
          <mxGeometry x="415" y="390" width="180" height="120" as="geometry" />
        </mxCell>
        <mxCell id="wIDoKdP5xiYzRXoxx19H-14" value="+ method(type): type" style="text;strokeColor=none;fillColor=none;align=left;verticalAlign=top;spacingLeft=4;spacingRight=4;overflow=hidden;rotatable=0;points=[[0,0.5],[1,0.5]];portConstraint=eastwest;" parent="wIDoKdP5xiYzRXoxx19H-13" vertex="1">
          <mxGeometry y="60" width="180" height="50" as="geometry" />
        </mxCell>
        <mxCell id="wIDoKdP5xiYzRXoxx19H-15" value="«interface»&lt;br&gt;&lt;b&gt;Expression&lt;/b&gt;&lt;div&gt;&lt;b&gt;&lt;br&gt;&lt;br&gt;&lt;br&gt;&lt;br&gt;&lt;/b&gt;&lt;/div&gt;" style="html=1;" parent="wIDoKdP5xiYzRXoxx19H-13" vertex="1">
          <mxGeometry width="180" height="120" as="geometry" />
        </mxCell>
        <mxCell id="wIDoKdP5xiYzRXoxx19H-16" value="" style="line;strokeWidth=1;fillColor=none;align=left;verticalAlign=middle;spacingTop=-1;spacingLeft=3;spacingRight=3;rotatable=0;labelPosition=right;points=[];portConstraint=eastwest;" parent="wIDoKdP5xiYzRXoxx19H-13" vertex="1">
          <mxGeometry y="50" width="180" height="8" as="geometry" />
        </mxCell>
        <mxCell id="wIDoKdP5xiYzRXoxx19H-19" value="" style="endArrow=block;dashed=1;endFill=0;endSize=12;html=1;" parent="1" source="wIDoKdP5xiYzRXoxx19H-5" target="wIDoKdP5xiYzRXoxx19H-15" edge="1">
          <mxGeometry width="160" relative="1" as="geometry">
            <mxPoint x="315" y="500" as="sourcePoint" />
            <mxPoint x="475" y="500" as="targetPoint" />
          </mxGeometry>
        </mxCell>
        <mxCell id="wIDoKdP5xiYzRXoxx19H-20" value="" style="endArrow=block;dashed=1;endFill=0;endSize=12;html=1;" parent="1" source="wIDoKdP5xiYzRXoxx19H-1" target="wIDoKdP5xiYzRXoxx19H-15" edge="1">
          <mxGeometry width="160" relative="1" as="geometry">
            <mxPoint x="275.0036363636365" y="585" as="sourcePoint" />
            <mxPoint x="398.14" y="507.00575815738966" as="targetPoint" />
          </mxGeometry>
        </mxCell>
        <mxCell id="wIDoKdP5xiYzRXoxx19H-22" value="UnaryMinus" style="swimlane;fontStyle=1;align=center;verticalAlign=top;childLayout=stackLayout;horizontal=1;startSize=26;horizontalStack=0;resizeParent=1;resizeParentMax=0;resizeLast=0;collapsible=1;marginBottom=0;" parent="1" vertex="1">
          <mxGeometry x="55" y="620" width="167" height="34" as="geometry" />
        </mxCell>
        <mxCell id="wIDoKdP5xiYzRXoxx19H-24" value="" style="line;strokeWidth=1;fillColor=none;align=left;verticalAlign=middle;spacingTop=-1;spacingLeft=3;spacingRight=3;rotatable=0;labelPosition=right;points=[];portConstraint=eastwest;" parent="wIDoKdP5xiYzRXoxx19H-22" vertex="1">
          <mxGeometry y="26" width="167" height="8" as="geometry" />
        </mxCell>
        <mxCell id="wIDoKdP5xiYzRXoxx19H-25" value="" style="endArrow=block;dashed=1;endFill=0;endSize=12;html=1;" parent="1" source="wIDoKdP5xiYzRXoxx19H-22" target="wIDoKdP5xiYzRXoxx19H-15" edge="1">
          <mxGeometry width="160" relative="1" as="geometry">
            <mxPoint x="227" y="572" as="sourcePoint" />
            <mxPoint x="332" y="462" as="targetPoint" />
          </mxGeometry>
        </mxCell>
        <mxCell id="wIDoKdP5xiYzRXoxx19H-26" value="1" style="endArrow=open;html=1;endSize=12;startArrow=diamondThin;startSize=14;startFill=0;edgeStyle=orthogonalEdgeStyle;align=left;verticalAlign=bottom;exitX=0.5;exitY=0;exitDx=0;exitDy=0;" parent="1" source="wIDoKdP5xiYzRXoxx19H-22" target="wIDoKdP5xiYzRXoxx19H-15" edge="1">
          <mxGeometry x="0.8405" relative="1" as="geometry">
            <mxPoint x="145" y="597" as="sourcePoint" />
            <mxPoint x="338" y="420" as="targetPoint" />
            <mxPoint as="offset" />
            <Array as="points">
              <mxPoint x="138" y="597" />
              <mxPoint x="168" y="597" />
              <mxPoint x="168" y="480" />
            </Array>
          </mxGeometry>
        </mxCell>
        <mxCell id="wIDoKdP5xiYzRXoxx19H-27" value="" style="group" parent="1" vertex="1" connectable="0">
          <mxGeometry x="225" y="170" width="180" height="100" as="geometry" />
        </mxCell>
        <mxCell id="wIDoKdP5xiYzRXoxx19H-28" value="+ method(type): type" style="text;strokeColor=none;fillColor=none;align=left;verticalAlign=top;spacingLeft=4;spacingRight=4;overflow=hidden;rotatable=0;points=[[0,0.5],[1,0.5]];portConstraint=eastwest;" parent="wIDoKdP5xiYzRXoxx19H-27" vertex="1">
          <mxGeometry y="50" width="180" height="41.66666666666667" as="geometry" />
        </mxCell>
        <mxCell id="wIDoKdP5xiYzRXoxx19H-29" value="«interface»&lt;br&gt;&lt;b&gt;ASTNode&lt;br&gt;&lt;br&gt;&lt;br&gt;&lt;br&gt;&lt;br&gt;&lt;/b&gt;" style="html=1;" parent="wIDoKdP5xiYzRXoxx19H-27" vertex="1">
          <mxGeometry width="180" height="100" as="geometry" />
        </mxCell>
        <mxCell id="wIDoKdP5xiYzRXoxx19H-30" value="" style="line;strokeWidth=1;fillColor=none;align=left;verticalAlign=middle;spacingTop=-1;spacingLeft=3;spacingRight=3;rotatable=0;labelPosition=right;points=[];portConstraint=eastwest;" parent="wIDoKdP5xiYzRXoxx19H-27" vertex="1">
          <mxGeometry y="41.66666666666667" width="180" height="6.666666666666667" as="geometry" />
        </mxCell>
        <mxCell id="wIDoKdP5xiYzRXoxx19H-32" value="" style="group" parent="1" vertex="1" connectable="0">
          <mxGeometry x="470" y="170" width="180" height="100" as="geometry" />
        </mxCell>
        <mxCell id="wIDoKdP5xiYzRXoxx19H-33" value="+ method(type): type" style="text;strokeColor=none;fillColor=none;align=left;verticalAlign=top;spacingLeft=4;spacingRight=4;overflow=hidden;rotatable=0;points=[[0,0.5],[1,0.5]];portConstraint=eastwest;" parent="wIDoKdP5xiYzRXoxx19H-32" vertex="1">
          <mxGeometry y="50" width="180" height="41.66666666666667" as="geometry" />
        </mxCell>
        <mxCell id="wIDoKdP5xiYzRXoxx19H-34" value="«interface»&lt;br&gt;&lt;b&gt;Locatable&lt;br&gt;&lt;br&gt;&lt;br&gt;&lt;br&gt;&lt;br&gt;&lt;/b&gt;" style="html=1;" parent="wIDoKdP5xiYzRXoxx19H-32" vertex="1">
          <mxGeometry width="180" height="100" as="geometry" />
        </mxCell>
        <mxCell id="wIDoKdP5xiYzRXoxx19H-35" value="" style="line;strokeWidth=1;fillColor=none;align=left;verticalAlign=middle;spacingTop=-1;spacingLeft=3;spacingRight=3;rotatable=0;labelPosition=right;points=[];portConstraint=eastwest;" parent="wIDoKdP5xiYzRXoxx19H-32" vertex="1">
          <mxGeometry y="41.66666666666667" width="180" height="6.666666666666667" as="geometry" />
        </mxCell>
        <mxCell id="wIDoKdP5xiYzRXoxx19H-36" value="+ getLine(): int&#xa;+ getColumn(): int" style="text;strokeColor=none;fillColor=none;align=left;verticalAlign=top;spacingLeft=4;spacingRight=4;overflow=hidden;rotatable=0;points=[[0,0.5],[1,0.5]];portConstraint=eastwest;" parent="wIDoKdP5xiYzRXoxx19H-32" vertex="1">
          <mxGeometry y="50" width="180" height="30" as="geometry" />
        </mxCell>
        <mxCell id="wIDoKdP5xiYzRXoxx19H-37" value="" style="endArrow=block;dashed=1;endFill=0;endSize=12;html=1;" parent="1" source="wIDoKdP5xiYzRXoxx19H-15" target="wIDoKdP5xiYzRXoxx19H-34" edge="1">
          <mxGeometry width="160" relative="1" as="geometry">
            <mxPoint x="585" y="390" as="sourcePoint" />
            <mxPoint x="484" y="280" as="targetPoint" />
          </mxGeometry>
        </mxCell>
        <mxCell id="wIDoKdP5xiYzRXoxx19H-38" value="" style="endArrow=block;endSize=16;endFill=0;html=1;" parent="1" source="wIDoKdP5xiYzRXoxx19H-34" target="wIDoKdP5xiYzRXoxx19H-29" edge="1">
          <mxGeometry width="160" relative="1" as="geometry">
            <mxPoint x="355" y="60" as="sourcePoint" />
            <mxPoint x="515" y="60" as="targetPoint" />
          </mxGeometry>
        </mxCell>
        <mxCell id="zcRp5Hii9O5nH9eWh5a0-1" value="RealLiteral" style="swimlane;fontStyle=1;align=center;verticalAlign=top;childLayout=stackLayout;horizontal=1;startSize=26;horizontalStack=0;resizeParent=1;resizeParentMax=0;resizeLast=0;collapsible=1;marginBottom=0;" parent="1" vertex="1">
          <mxGeometry x="325" y="700" width="167" height="60" as="geometry" />
        </mxCell>
        <mxCell id="zcRp5Hii9O5nH9eWh5a0-2" value="+ value: double" style="text;strokeColor=none;fillColor=none;align=left;verticalAlign=top;spacingLeft=4;spacingRight=4;overflow=hidden;rotatable=0;points=[[0,0.5],[1,0.5]];portConstraint=eastwest;" parent="zcRp5Hii9O5nH9eWh5a0-1" vertex="1">
          <mxGeometry y="26" width="167" height="26" as="geometry" />
        </mxCell>
        <mxCell id="zcRp5Hii9O5nH9eWh5a0-3" value="" style="line;strokeWidth=1;fillColor=none;align=left;verticalAlign=middle;spacingTop=-1;spacingLeft=3;spacingRight=3;rotatable=0;labelPosition=right;points=[];portConstraint=eastwest;" parent="zcRp5Hii9O5nH9eWh5a0-1" vertex="1">
          <mxGeometry y="52" width="167" height="8" as="geometry" />
        </mxCell>
        <mxCell id="zcRp5Hii9O5nH9eWh5a0-4" value="CharLiteral" style="swimlane;fontStyle=1;align=center;verticalAlign=top;childLayout=stackLayout;horizontal=1;startSize=26;horizontalStack=0;resizeParent=1;resizeParentMax=0;resizeLast=0;collapsible=1;marginBottom=0;" parent="1" vertex="1">
          <mxGeometry x="515" y="700" width="167" height="60" as="geometry" />
        </mxCell>
        <mxCell id="zcRp5Hii9O5nH9eWh5a0-5" value="+ value: char" style="text;strokeColor=none;fillColor=none;align=left;verticalAlign=top;spacingLeft=4;spacingRight=4;overflow=hidden;rotatable=0;points=[[0,0.5],[1,0.5]];portConstraint=eastwest;" parent="zcRp5Hii9O5nH9eWh5a0-4" vertex="1">
          <mxGeometry y="26" width="167" height="26" as="geometry" />
        </mxCell>
        <mxCell id="zcRp5Hii9O5nH9eWh5a0-6" value="" style="line;strokeWidth=1;fillColor=none;align=left;verticalAlign=middle;spacingTop=-1;spacingLeft=3;spacingRight=3;rotatable=0;labelPosition=right;points=[];portConstraint=eastwest;" parent="zcRp5Hii9O5nH9eWh5a0-4" vertex="1">
          <mxGeometry y="52" width="167" height="8" as="geometry" />
        </mxCell>
        <mxCell id="zcRp5Hii9O5nH9eWh5a0-8" value="" style="endArrow=block;dashed=1;endFill=0;endSize=12;html=1;" parent="1" source="zcRp5Hii9O5nH9eWh5a0-1" target="wIDoKdP5xiYzRXoxx19H-15" edge="1">
          <mxGeometry width="160" relative="1" as="geometry">
            <mxPoint x="245" y="700" as="sourcePoint" />
            <mxPoint x="405" y="700" as="targetPoint" />
            <Array as="points">
              <mxPoint x="405" y="610" />
            </Array>
          </mxGeometry>
        </mxCell>
        <mxCell id="zcRp5Hii9O5nH9eWh5a0-9" value="" style="endArrow=block;dashed=1;endFill=0;endSize=12;html=1;" parent="1" source="zcRp5Hii9O5nH9eWh5a0-4" target="wIDoKdP5xiYzRXoxx19H-15" edge="1">
          <mxGeometry width="160" relative="1" as="geometry">
            <mxPoint x="495" y="700" as="sourcePoint" />
            <mxPoint x="655" y="700" as="targetPoint" />
            <Array as="points">
              <mxPoint x="595" y="620" />
            </Array>
          </mxGeometry>
        </mxCell>
        <mxCell id="zcRp5Hii9O5nH9eWh5a0-10" value="FuncInvocation" style="swimlane;fontStyle=1;align=center;verticalAlign=top;childLayout=stackLayout;horizontal=1;startSize=26;horizontalStack=0;resizeParent=1;resizeParentMax=0;resizeLast=0;collapsible=1;marginBottom=0;" parent="1" vertex="1">
          <mxGeometry x="730" y="370" width="167" height="34" as="geometry" />
        </mxCell>
        <mxCell id="zcRp5Hii9O5nH9eWh5a0-12" value="" style="line;strokeWidth=1;fillColor=none;align=left;verticalAlign=middle;spacingTop=-1;spacingLeft=3;spacingRight=3;rotatable=0;labelPosition=right;points=[];portConstraint=eastwest;" parent="zcRp5Hii9O5nH9eWh5a0-10" vertex="1">
          <mxGeometry y="26" width="167" height="8" as="geometry" />
        </mxCell>
        <mxCell id="zcRp5Hii9O5nH9eWh5a0-13" value="" style="endArrow=block;dashed=1;endFill=0;endSize=12;html=1;" parent="1" source="zcRp5Hii9O5nH9eWh5a0-10" target="wIDoKdP5xiYzRXoxx19H-15" edge="1">
          <mxGeometry width="160" relative="1" as="geometry">
            <mxPoint x="717" y="499.99999999999994" as="sourcePoint" />
            <mxPoint x="877" y="499.99999999999994" as="targetPoint" />
            <Array as="points">
              <mxPoint x="790" y="410" />
              <mxPoint x="700" y="420" />
            </Array>
          </mxGeometry>
        </mxCell>
        <mxCell id="zcRp5Hii9O5nH9eWh5a0-14" value="NotExpression" style="swimlane;fontStyle=1;align=center;verticalAlign=top;childLayout=stackLayout;horizontal=1;startSize=26;horizontalStack=0;resizeParent=1;resizeParentMax=0;resizeLast=0;collapsible=1;marginBottom=0;" parent="1" vertex="1">
          <mxGeometry x="55" y="690" width="167" height="34" as="geometry" />
        </mxCell>
        <mxCell id="zcRp5Hii9O5nH9eWh5a0-15" value="" style="line;strokeWidth=1;fillColor=none;align=left;verticalAlign=middle;spacingTop=-1;spacingLeft=3;spacingRight=3;rotatable=0;labelPosition=right;points=[];portConstraint=eastwest;" parent="zcRp5Hii9O5nH9eWh5a0-14" vertex="1">
          <mxGeometry y="26" width="167" height="8" as="geometry" />
        </mxCell>
        <mxCell id="zcRp5Hii9O5nH9eWh5a0-16" value="1" style="endArrow=open;html=1;endSize=12;startArrow=diamondThin;startSize=14;startFill=0;edgeStyle=orthogonalEdgeStyle;align=left;verticalAlign=bottom;" parent="1" source="zcRp5Hii9O5nH9eWh5a0-14" target="wIDoKdP5xiYzRXoxx19H-15" edge="1">
          <mxGeometry x="0.8405" relative="1" as="geometry">
            <mxPoint x="149" y="630" as="sourcePoint" />
            <mxPoint x="425" y="430" as="targetPoint" />
            <mxPoint as="offset" />
            <Array as="points">
              <mxPoint x="20" y="707" />
              <mxPoint x="20" y="450" />
            </Array>
          </mxGeometry>
        </mxCell>
        <mxCell id="zcRp5Hii9O5nH9eWh5a0-17" value="" style="endArrow=block;dashed=1;endFill=0;endSize=12;html=1;" parent="1" source="zcRp5Hii9O5nH9eWh5a0-14" target="wIDoKdP5xiYzRXoxx19H-15" edge="1">
          <mxGeometry width="160" relative="1" as="geometry">
            <mxPoint x="70" y="930" as="sourcePoint" />
            <mxPoint x="230" y="930" as="targetPoint" />
            <Array as="points">
              <mxPoint x="140" y="670" />
              <mxPoint x="220" y="670" />
              <mxPoint x="230" y="620" />
            </Array>
          </mxGeometry>
        </mxCell>
        <mxCell id="zcRp5Hii9O5nH9eWh5a0-18" value="Cast" style="swimlane;fontStyle=1;align=center;verticalAlign=top;childLayout=stackLayout;horizontal=1;startSize=26;horizontalStack=0;resizeParent=1;resizeParentMax=0;resizeLast=0;collapsible=1;marginBottom=0;" parent="1" vertex="1">
          <mxGeometry x="20" y="356" width="167" height="34" as="geometry" />
        </mxCell>
        <mxCell id="zcRp5Hii9O5nH9eWh5a0-19" value="" style="line;strokeWidth=1;fillColor=none;align=left;verticalAlign=middle;spacingTop=-1;spacingLeft=3;spacingRight=3;rotatable=0;labelPosition=right;points=[];portConstraint=eastwest;" parent="zcRp5Hii9O5nH9eWh5a0-18" vertex="1">
          <mxGeometry y="26" width="167" height="8" as="geometry" />
        </mxCell>
        <mxCell id="zcRp5Hii9O5nH9eWh5a0-20" value="1" style="endArrow=open;html=1;endSize=12;startArrow=diamondThin;startSize=14;startFill=0;edgeStyle=orthogonalEdgeStyle;align=left;verticalAlign=bottom;" parent="1" source="zcRp5Hii9O5nH9eWh5a0-18" target="wIDoKdP5xiYzRXoxx19H-15" edge="1">
          <mxGeometry x="0.8405" relative="1" as="geometry">
            <mxPoint x="65" y="717" as="sourcePoint" />
            <mxPoint x="425" y="460" as="targetPoint" />
            <mxPoint as="offset" />
            <Array as="points">
              <mxPoint x="70" y="430" />
            </Array>
          </mxGeometry>
        </mxCell>
        <mxCell id="zcRp5Hii9O5nH9eWh5a0-22" value="*" style="endArrow=open;html=1;endSize=12;startArrow=diamondThin;startSize=14;startFill=0;edgeStyle=orthogonalEdgeStyle;align=left;verticalAlign=bottom;" parent="1" source="zcRp5Hii9O5nH9eWh5a0-10" target="wIDoKdP5xiYzRXoxx19H-15" edge="1">
          <mxGeometry x="0.8214" y="-10" relative="1" as="geometry">
            <mxPoint x="730" y="470" as="sourcePoint" />
            <mxPoint x="890" y="470" as="targetPoint" />
            <mxPoint as="offset" />
            <Array as="points">
              <mxPoint x="662" y="387" />
              <mxPoint x="662" y="410" />
            </Array>
          </mxGeometry>
        </mxCell>
        <mxCell id="zcRp5Hii9O5nH9eWh5a0-24" value="" style="endArrow=block;dashed=1;endFill=0;endSize=12;html=1;" parent="1" source="zcRp5Hii9O5nH9eWh5a0-18" target="wIDoKdP5xiYzRXoxx19H-15" edge="1">
          <mxGeometry width="160" relative="1" as="geometry">
            <mxPoint x="182" y="630" as="sourcePoint" />
            <mxPoint x="425" y="506" as="targetPoint" />
            <Array as="points">
              <mxPoint x="350" y="390" />
            </Array>
          </mxGeometry>
        </mxCell>
        <mxCell id="5UMiv16RsiWCEvbho4ql-1" value="" style="group" parent="1" vertex="1" connectable="0">
          <mxGeometry x="10" y="170" width="180" height="110" as="geometry" />
        </mxCell>
        <mxCell id="5UMiv16RsiWCEvbho4ql-2" value="+ method(type): type" style="text;strokeColor=none;fillColor=none;align=left;verticalAlign=top;spacingLeft=4;spacingRight=4;overflow=hidden;rotatable=0;points=[[0,0.5],[1,0.5]];portConstraint=eastwest;" parent="5UMiv16RsiWCEvbho4ql-1" vertex="1">
          <mxGeometry y="55.00000000000001" width="180" height="45.83333333333333" as="geometry" />
        </mxCell>
        <mxCell id="5UMiv16RsiWCEvbho4ql-3" value="«interface»&lt;br&gt;&lt;b&gt;Type&lt;br&gt;&lt;br&gt;&lt;br&gt;&lt;br&gt;&lt;br&gt;&lt;br&gt;&lt;/b&gt;" style="html=1;" parent="5UMiv16RsiWCEvbho4ql-1" vertex="1">
          <mxGeometry width="180" height="110.00000000000001" as="geometry" />
        </mxCell>
        <mxCell id="5UMiv16RsiWCEvbho4ql-4" value="" style="line;strokeWidth=1;fillColor=none;align=left;verticalAlign=middle;spacingTop=-1;spacingLeft=3;spacingRight=3;rotatable=0;labelPosition=right;points=[];portConstraint=eastwest;" parent="5UMiv16RsiWCEvbho4ql-1" vertex="1">
          <mxGeometry y="45.83333333333333" width="180" height="7.333333333333333" as="geometry" />
        </mxCell>
        <mxCell id="5UMiv16RsiWCEvbho4ql-5" value="1" style="endArrow=open;html=1;endSize=12;startArrow=diamondThin;startSize=14;startFill=0;edgeStyle=orthogonalEdgeStyle;align=left;verticalAlign=bottom;" parent="1" source="zcRp5Hii9O5nH9eWh5a0-18" target="5UMiv16RsiWCEvbho4ql-3" edge="1">
          <mxGeometry x="0.0909" y="20" relative="1" as="geometry">
            <mxPoint x="90" y="330" as="sourcePoint" />
            <mxPoint x="250" y="330" as="targetPoint" />
            <mxPoint as="offset" />
            <Array as="points">
              <mxPoint x="100" y="340" />
              <mxPoint x="100" y="340" />
            </Array>
          </mxGeometry>
        </mxCell>
        <mxCell id="5UMiv16RsiWCEvbho4ql-7" value="" style="endArrow=block;endSize=16;endFill=0;html=1;" parent="1" source="5UMiv16RsiWCEvbho4ql-3" target="wIDoKdP5xiYzRXoxx19H-29" edge="1">
          <mxGeometry width="160" relative="1" as="geometry">
            <mxPoint x="535" y="230" as="sourcePoint" />
            <mxPoint x="415" y="230" as="targetPoint" />
            <Array as="points">
              <mxPoint x="120" y="140" />
              <mxPoint x="320" y="140" />
            </Array>
          </mxGeometry>
        </mxCell>
        <mxCell id="5UMiv16RsiWCEvbho4ql-9" value="IndexExpression" style="swimlane;fontStyle=1;align=center;verticalAlign=top;childLayout=stackLayout;horizontal=1;startSize=26;horizontalStack=0;resizeParent=1;resizeParentMax=0;resizeLast=0;collapsible=1;marginBottom=0;" parent="1" vertex="1">
          <mxGeometry x="335" y="306" width="135" height="34" as="geometry" />
        </mxCell>
        <mxCell id="5UMiv16RsiWCEvbho4ql-10" value="" style="line;strokeWidth=1;fillColor=none;align=left;verticalAlign=middle;spacingTop=-1;spacingLeft=3;spacingRight=3;rotatable=0;labelPosition=right;points=[];portConstraint=eastwest;" parent="5UMiv16RsiWCEvbho4ql-9" vertex="1">
          <mxGeometry y="26" width="135" height="8" as="geometry" />
        </mxCell>
        <mxCell id="5UMiv16RsiWCEvbho4ql-11" value="" style="endArrow=block;dashed=1;endFill=0;endSize=12;html=1;" parent="1" source="5UMiv16RsiWCEvbho4ql-9" target="wIDoKdP5xiYzRXoxx19H-15" edge="1">
          <mxGeometry width="160" relative="1" as="geometry">
            <mxPoint x="544" y="400" as="sourcePoint" />
            <mxPoint x="601" y="280" as="targetPoint" />
            <Array as="points">
              <mxPoint x="505" y="317" />
            </Array>
          </mxGeometry>
        </mxCell>
        <mxCell id="5UMiv16RsiWCEvbho4ql-12" value="2" style="endArrow=open;html=1;endSize=12;startArrow=diamondThin;startSize=14;startFill=0;edgeStyle=orthogonalEdgeStyle;align=left;verticalAlign=bottom;" parent="1" source="5UMiv16RsiWCEvbho4ql-9" target="wIDoKdP5xiYzRXoxx19H-15" edge="1">
          <mxGeometry x="0.875" y="10" relative="1" as="geometry">
            <mxPoint x="365" y="360" as="sourcePoint" />
            <mxPoint x="525" y="360" as="targetPoint" />
            <mxPoint as="offset" />
            <Array as="points">
              <mxPoint x="370" y="360" />
              <mxPoint x="450" y="360" />
            </Array>
          </mxGeometry>
        </mxCell>
        <mxCell id="5UMiv16RsiWCEvbho4ql-15" value="FieldAccessExpression" style="swimlane;fontStyle=1;align=center;verticalAlign=top;childLayout=stackLayout;horizontal=1;startSize=26;horizontalStack=0;resizeParent=1;resizeParentMax=0;resizeLast=0;collapsible=1;marginBottom=0;" parent="1" vertex="1">
          <mxGeometry x="630" y="280" width="167" height="60" as="geometry" />
        </mxCell>
        <mxCell id="5UMiv16RsiWCEvbho4ql-16" value="+ fieldName: String" style="text;strokeColor=none;fillColor=none;align=left;verticalAlign=top;spacingLeft=4;spacingRight=4;overflow=hidden;rotatable=0;points=[[0,0.5],[1,0.5]];portConstraint=eastwest;" parent="5UMiv16RsiWCEvbho4ql-15" vertex="1">
          <mxGeometry y="26" width="167" height="26" as="geometry" />
        </mxCell>
        <mxCell id="5UMiv16RsiWCEvbho4ql-17" value="" style="line;strokeWidth=1;fillColor=none;align=left;verticalAlign=middle;spacingTop=-1;spacingLeft=3;spacingRight=3;rotatable=0;labelPosition=right;points=[];portConstraint=eastwest;" parent="5UMiv16RsiWCEvbho4ql-15" vertex="1">
          <mxGeometry y="52" width="167" height="8" as="geometry" />
        </mxCell>
        <mxCell id="5UMiv16RsiWCEvbho4ql-18" value="" style="endArrow=block;dashed=1;endFill=0;endSize=12;html=1;" parent="1" source="5UMiv16RsiWCEvbho4ql-15" target="wIDoKdP5xiYzRXoxx19H-15" edge="1">
          <mxGeometry width="160" relative="1" as="geometry">
            <mxPoint x="424" y="327" as="sourcePoint" />
            <mxPoint x="515" y="400" as="targetPoint" />
            <Array as="points">
              <mxPoint x="550" y="320" />
            </Array>
          </mxGeometry>
        </mxCell>
        <mxCell id="5UMiv16RsiWCEvbho4ql-19" value="1" style="endArrow=open;html=1;endSize=12;startArrow=diamondThin;startSize=14;startFill=0;edgeStyle=orthogonalEdgeStyle;align=left;verticalAlign=bottom;" parent="1" source="5UMiv16RsiWCEvbho4ql-15" target="wIDoKdP5xiYzRXoxx19H-15" edge="1">
          <mxGeometry x="0.875" y="10" relative="1" as="geometry">
            <mxPoint x="341" y="344" as="sourcePoint" />
            <mxPoint x="460" y="400" as="targetPoint" />
            <mxPoint as="offset" />
            <Array as="points">
              <mxPoint x="680" y="360" />
              <mxPoint x="560" y="360" />
            </Array>
          </mxGeometry>
        </mxCell>
        <mxCell id="p7DPL7Ij17MreAmTJk7b-1" value="1" style="endArrow=open;html=1;endSize=12;startArrow=diamondThin;startSize=14;startFill=0;edgeStyle=orthogonalEdgeStyle;align=left;verticalAlign=bottom;" parent="1" source="zcRp5Hii9O5nH9eWh5a0-10" target="wIDoKdP5xiYzRXoxx19H-5" edge="1">
          <mxGeometry x="0.9572" y="15" relative="1" as="geometry">
            <mxPoint x="340" y="850" as="sourcePoint" />
            <mxPoint x="500" y="850" as="targetPoint" />
            <mxPoint as="offset" />
            <Array as="points">
              <mxPoint x="1100" y="387" />
              <mxPoint x="1100" y="800" />
              <mxPoint x="315" y="800" />
            </Array>
          </mxGeometry>
        </mxCell>
        <mxCell id="p7DPL7Ij17MreAmTJk7b-3" value="LogicalExpression" style="swimlane;fontStyle=1;align=center;verticalAlign=top;childLayout=stackLayout;horizontal=1;startSize=26;horizontalStack=0;resizeParent=1;resizeParentMax=0;resizeLast=0;collapsible=1;marginBottom=0;" parent="1" vertex="1">
          <mxGeometry x="760" y="430" width="167" height="60" as="geometry" />
        </mxCell>
        <mxCell id="p7DPL7Ij17MreAmTJk7b-4" value="+ operator: String" style="text;strokeColor=none;fillColor=none;align=left;verticalAlign=top;spacingLeft=4;spacingRight=4;overflow=hidden;rotatable=0;points=[[0,0.5],[1,0.5]];portConstraint=eastwest;" parent="p7DPL7Ij17MreAmTJk7b-3" vertex="1">
          <mxGeometry y="26" width="167" height="26" as="geometry" />
        </mxCell>
        <mxCell id="p7DPL7Ij17MreAmTJk7b-5" value="" style="line;strokeWidth=1;fillColor=none;align=left;verticalAlign=middle;spacingTop=-1;spacingLeft=3;spacingRight=3;rotatable=0;labelPosition=right;points=[];portConstraint=eastwest;" parent="p7DPL7Ij17MreAmTJk7b-3" vertex="1">
          <mxGeometry y="52" width="167" height="8" as="geometry" />
        </mxCell>
        <mxCell id="p7DPL7Ij17MreAmTJk7b-6" value="RelationalExpression" style="swimlane;fontStyle=1;align=center;verticalAlign=top;childLayout=stackLayout;horizontal=1;startSize=26;horizontalStack=0;resizeParent=1;resizeParentMax=0;resizeLast=0;collapsible=1;marginBottom=0;" parent="1" vertex="1">
          <mxGeometry x="760" y="510" width="167" height="60" as="geometry" />
        </mxCell>
        <mxCell id="p7DPL7Ij17MreAmTJk7b-7" value="+ operator: String" style="text;strokeColor=none;fillColor=none;align=left;verticalAlign=top;spacingLeft=4;spacingRight=4;overflow=hidden;rotatable=0;points=[[0,0.5],[1,0.5]];portConstraint=eastwest;" parent="p7DPL7Ij17MreAmTJk7b-6" vertex="1">
          <mxGeometry y="26" width="167" height="26" as="geometry" />
        </mxCell>
        <mxCell id="p7DPL7Ij17MreAmTJk7b-8" value="" style="line;strokeWidth=1;fillColor=none;align=left;verticalAlign=middle;spacingTop=-1;spacingLeft=3;spacingRight=3;rotatable=0;labelPosition=right;points=[];portConstraint=eastwest;" parent="p7DPL7Ij17MreAmTJk7b-6" vertex="1">
          <mxGeometry y="52" width="167" height="8" as="geometry" />
        </mxCell>
        <mxCell id="p7DPL7Ij17MreAmTJk7b-9" value="" style="endArrow=block;dashed=1;endFill=0;endSize=12;html=1;" parent="1" source="p7DPL7Ij17MreAmTJk7b-3" target="wIDoKdP5xiYzRXoxx19H-15" edge="1">
          <mxGeometry width="160" relative="1" as="geometry">
            <mxPoint x="720" y="600" as="sourcePoint" />
            <mxPoint x="880" y="600" as="targetPoint" />
          </mxGeometry>
        </mxCell>
        <mxCell id="p7DPL7Ij17MreAmTJk7b-10" value="" style="endArrow=block;dashed=1;endFill=0;endSize=12;html=1;" parent="1" source="p7DPL7Ij17MreAmTJk7b-6" target="wIDoKdP5xiYzRXoxx19H-15" edge="1">
          <mxGeometry width="160" relative="1" as="geometry">
            <mxPoint x="770" y="468" as="sourcePoint" />
            <mxPoint x="605" y="463" as="targetPoint" />
          </mxGeometry>
        </mxCell>
        <mxCell id="p7DPL7Ij17MreAmTJk7b-11" value="2" style="endArrow=open;html=1;endSize=12;startArrow=diamondThin;startSize=14;startFill=0;edgeStyle=orthogonalEdgeStyle;align=left;verticalAlign=bottom;" parent="1" source="p7DPL7Ij17MreAmTJk7b-6" target="wIDoKdP5xiYzRXoxx19H-15" edge="1">
          <mxGeometry x="0.8405" relative="1" as="geometry">
            <mxPoint x="695" y="630" as="sourcePoint" />
            <mxPoint x="605" y="510" as="targetPoint" />
            <mxPoint as="offset" />
            <Array as="points">
              <mxPoint x="630" y="540" />
              <mxPoint x="630" y="500" />
            </Array>
          </mxGeometry>
        </mxCell>
        <mxCell id="p7DPL7Ij17MreAmTJk7b-12" value="2" style="endArrow=open;html=1;endSize=12;startArrow=diamondThin;startSize=14;startFill=0;edgeStyle=orthogonalEdgeStyle;align=left;verticalAlign=bottom;" parent="1" source="p7DPL7Ij17MreAmTJk7b-3" target="wIDoKdP5xiYzRXoxx19H-15" edge="1">
          <mxGeometry x="0.8405" relative="1" as="geometry">
            <mxPoint x="770" y="550" as="sourcePoint" />
            <mxPoint x="605" y="510" as="targetPoint" />
            <mxPoint as="offset" />
            <Array as="points">
              <mxPoint x="600" y="470" />
              <mxPoint x="600" y="470" />
            </Array>
          </mxGeometry>
        </mxCell>
        <mxCell id="FSjlENQ1su7ySYIfnpes-21" style="edgeStyle=orthogonalEdgeStyle;rounded=0;orthogonalLoop=1;jettySize=auto;html=1;" parent="1" source="FSjlENQ1su7ySYIfnpes-1" target="FSjlENQ1su7ySYIfnpes-17" edge="1">
          <mxGeometry relative="1" as="geometry" />
        </mxCell>
        <mxCell id="FSjlENQ1su7ySYIfnpes-1" value="ModExpression" style="swimlane;fontStyle=1;align=center;verticalAlign=top;childLayout=stackLayout;horizontal=1;startSize=26;horizontalStack=0;resizeParent=1;resizeParentMax=0;resizeLast=0;collapsible=1;marginBottom=0;" parent="1" vertex="1">
          <mxGeometry x="903" y="600" width="167" height="34" as="geometry" />
        </mxCell>
        <mxCell id="FSjlENQ1su7ySYIfnpes-3" value="" style="line;strokeWidth=1;fillColor=none;align=left;verticalAlign=middle;spacingTop=-1;spacingLeft=3;spacingRight=3;rotatable=0;labelPosition=right;points=[];portConstraint=eastwest;" parent="FSjlENQ1su7ySYIfnpes-1" vertex="1">
          <mxGeometry y="26" width="167" height="8" as="geometry" />
        </mxCell>
        <mxCell id="FSjlENQ1su7ySYIfnpes-7" value="2" style="endArrow=open;html=1;endSize=12;startArrow=diamondThin;startSize=14;startFill=0;edgeStyle=orthogonalEdgeStyle;align=left;verticalAlign=bottom;" parent="1" source="FSjlENQ1su7ySYIfnpes-17" target="wIDoKdP5xiYzRXoxx19H-15" edge="1">
          <mxGeometry x="0.8405" relative="1" as="geometry">
            <mxPoint x="690" y="590" as="sourcePoint" />
            <mxPoint x="607" y="450" as="targetPoint" />
            <mxPoint as="offset" />
            <Array as="points">
              <mxPoint x="607" y="645" />
              <mxPoint x="607" y="540" />
              <mxPoint x="560" y="540" />
            </Array>
          </mxGeometry>
        </mxCell>
        <mxCell id="FSjlENQ1su7ySYIfnpes-8" value="" style="endArrow=block;dashed=1;endFill=0;endSize=12;html=1;" parent="1" source="FSjlENQ1su7ySYIfnpes-17" target="wIDoKdP5xiYzRXoxx19H-15" edge="1">
          <mxGeometry width="160" relative="1" as="geometry">
            <mxPoint x="790" y="600" as="sourcePoint" />
            <mxPoint x="690" y="490" as="targetPoint" />
          </mxGeometry>
        </mxCell>
        <mxCell id="FSjlENQ1su7ySYIfnpes-9" value="ExpressionFactory" style="swimlane;fontStyle=1;align=center;verticalAlign=top;childLayout=stackLayout;horizontal=1;startSize=26;horizontalStack=0;resizeParent=1;resizeParentMax=0;resizeLast=0;collapsible=1;marginBottom=0;" parent="1" vertex="1">
          <mxGeometry x="500" y="810" width="600" height="56" as="geometry" />
        </mxCell>
        <mxCell id="FSjlENQ1su7ySYIfnpes-11" value="" style="line;strokeWidth=1;fillColor=none;align=left;verticalAlign=middle;spacingTop=-1;spacingLeft=3;spacingRight=3;rotatable=0;labelPosition=right;points=[];portConstraint=eastwest;" parent="FSjlENQ1su7ySYIfnpes-9" vertex="1">
          <mxGeometry y="26" width="600" height="4" as="geometry" />
        </mxCell>
        <mxCell id="FSjlENQ1su7ySYIfnpes-10" value="+ createArithmeticExpression(int, int, String, Expression, Expression): AbstractBinaryArithmeticExpression" style="text;strokeColor=none;fillColor=none;align=left;verticalAlign=top;spacingLeft=4;spacingRight=4;overflow=hidden;rotatable=0;points=[[0,0.5],[1,0.5]];portConstraint=eastwest;" parent="FSjlENQ1su7ySYIfnpes-9" vertex="1">
          <mxGeometry y="30" width="600" height="26" as="geometry" />
        </mxCell>
        <mxCell id="FSjlENQ1su7ySYIfnpes-15" value="" style="group" parent="1" vertex="1" connectable="0">
          <mxGeometry x="640" y="592" width="220" height="90" as="geometry" />
        </mxCell>
        <mxCell id="FSjlENQ1su7ySYIfnpes-16" value="+ method(type): type" style="text;strokeColor=none;fillColor=none;align=left;verticalAlign=top;spacingLeft=4;spacingRight=4;overflow=hidden;rotatable=0;points=[[0,0.5],[1,0.5]];portConstraint=eastwest;" parent="FSjlENQ1su7ySYIfnpes-15" vertex="1">
          <mxGeometry y="45" width="220.00000000000003" height="37.49999999999999" as="geometry" />
        </mxCell>
        <mxCell id="FSjlENQ1su7ySYIfnpes-17" value="&lt;div&gt;«abstract»&lt;b&gt;&lt;br&gt;&lt;/b&gt;&lt;/div&gt;&lt;div&gt;&lt;b&gt;AbstractBinaryArithmeticExpression&lt;/b&gt;&lt;/div&gt;&lt;div&gt;&lt;b&gt;&lt;br&gt;&lt;br&gt;&lt;br&gt;&lt;br&gt;&lt;/b&gt;&lt;/div&gt;" style="html=1;" parent="FSjlENQ1su7ySYIfnpes-15" vertex="1">
          <mxGeometry width="220.00000000000003" height="90" as="geometry" />
        </mxCell>
        <mxCell id="FSjlENQ1su7ySYIfnpes-18" value="" style="line;strokeWidth=1;fillColor=none;align=left;verticalAlign=middle;spacingTop=-1;spacingLeft=3;spacingRight=3;rotatable=0;labelPosition=right;points=[];portConstraint=eastwest;" parent="FSjlENQ1su7ySYIfnpes-15" vertex="1">
          <mxGeometry y="37.49999999999999" width="220.00000000000003" height="6" as="geometry" />
        </mxCell>
        <mxCell id="FSjlENQ1su7ySYIfnpes-19" value="+ operator: String" style="text;strokeColor=none;fillColor=none;align=left;verticalAlign=top;spacingLeft=4;spacingRight=4;overflow=hidden;rotatable=0;points=[[0,0.5],[1,0.5]];portConstraint=eastwest;" parent="FSjlENQ1su7ySYIfnpes-15" vertex="1">
          <mxGeometry x="7.944444444444445" y="45" width="204.11111111111111" height="19.5" as="geometry" />
        </mxCell>
        <mxCell id="FSjlENQ1su7ySYIfnpes-23" value="" style="endArrow=open;endFill=1;endSize=12;html=1;dashed=1;" parent="1" source="FSjlENQ1su7ySYIfnpes-9" edge="1">
          <mxGeometry width="160" relative="1" as="geometry">
            <mxPoint x="782.5642760487144" y="836.75" as="sourcePoint" />
            <mxPoint x="770" y="682" as="targetPoint" />
            <Array as="points">
              <mxPoint x="770" y="682" />
            </Array>
          </mxGeometry>
        </mxCell>
      </root>
    </mxGraphModel>
  </diagram>
</mxfile>
